<?xml version="1.0" encoding="utf-8"?>
<!-- Generator: Adobe Illustrator 16.0.0, SVG Export Plug-In . SVG Version: 6.00 Build 0)  -->
<!DOCTYPE svg PUBLIC "-//W3C//DTD SVG 1.1//EN" "http://www.w3.org/Graphics/SVG/1.1/DTD/svg11.dtd">
<svg version="1.1" id="Layer_1" xmlns="http://www.w3.org/2000/svg" xmlns:xlink="http://www.w3.org/1999/xlink" x="0px" y="0px"
	 width="90px" height="91px" viewBox="0 0 90 91" enable-background="new 0 0 90 91" xml:space="preserve">
<circle fill="#651E7F" cx="45.5" cy="46.5" r="44.5"/>
<g>
	<path fill="#FFFFFF" d="M17.934,6.131c0-2.955,2.395-5.35,5.35-5.35h32.775c2.954,0,5.35,2.395,5.35,5.35v49.265
		c0,2.955-2.396,5.35-5.35,5.35H23.283c-2.955,0-5.35-2.395-5.35-5.35V6.131z"/>
	<path fill="#B0C1D6" d="M21.307,6.591c0-0.311,0.251-0.562,0.562-0.562h35.229c0.311,0,0.563,0.251,0.563,0.562
		s-0.252,0.563-0.563,0.563H21.869C21.558,7.153,21.307,6.901,21.307,6.591z"/>
	<path fill="#B0C1D6" d="M21.307,10.713c0-0.311,0.251-0.562,0.562-0.562h35.229c0.311,0,0.563,0.251,0.563,0.562
		s-0.252,0.562-0.563,0.562H21.869C21.558,11.275,21.307,11.024,21.307,10.713z"/>
	<path fill="#B0C1D6" d="M21.307,14.836c0-0.311,0.251-0.563,0.562-0.563h35.229c0.311,0,0.563,0.252,0.563,0.563
		s-0.252,0.562-0.563,0.562H21.869C21.558,15.398,21.307,15.146,21.307,14.836z"/>
	<path fill="#B0C1D6" d="M21.307,18.958c0-0.311,0.251-0.562,0.562-0.562h35.229c0.311,0,0.563,0.251,0.563,0.562
		s-0.252,0.563-0.563,0.563H21.869C21.558,19.521,21.307,19.269,21.307,18.958z"/>
	<path fill="#B0C1D6" d="M21.307,23.081c0-0.311,0.251-0.562,0.562-0.562h35.229c0.311,0,0.563,0.251,0.563,0.562
		s-0.252,0.563-0.563,0.563H21.869C21.558,23.644,21.307,23.392,21.307,23.081z"/>
	<path fill="#B0C1D6" d="M21.307,27.204c0-0.311,0.251-0.562,0.562-0.562h35.229c0.311,0,0.563,0.251,0.563,0.562
		s-0.252,0.562-0.563,0.562H21.869C21.558,27.766,21.307,27.514,21.307,27.204z"/>
	<path fill="#B0C1D6" d="M21.307,31.326c0-0.311,0.251-0.562,0.562-0.562h35.229c0.311,0,0.563,0.251,0.563,0.562
		s-0.252,0.562-0.563,0.562H21.869C21.558,31.888,21.307,31.637,21.307,31.326z"/>
	<path fill="#B0C1D6" d="M21.307,35.449c0-0.311,0.251-0.562,0.562-0.562h35.229c0.311,0,0.563,0.251,0.563,0.562
		s-0.252,0.562-0.563,0.562H21.869C21.558,36.011,21.307,35.759,21.307,35.449z"/>
	<path fill="#B0C1D6" d="M21.307,39.571c0-0.311,0.251-0.562,0.562-0.562h35.229c0.311,0,0.563,0.251,0.563,0.562
		s-0.252,0.563-0.563,0.563H21.869C21.558,40.134,21.307,39.882,21.307,39.571z"/>
	<path fill="#B0C1D6" d="M21.307,43.694c0-0.311,0.251-0.562,0.562-0.562h35.229c0.311,0,0.563,0.251,0.563,0.562
		s-0.252,0.562-0.563,0.562H21.869C21.558,44.256,21.307,44.004,21.307,43.694z"/>
	<path fill="#B0C1D6" d="M21.307,47.816c0-0.311,0.251-0.563,0.562-0.563h35.229c0.311,0,0.563,0.252,0.563,0.563
		s-0.252,0.563-0.563,0.563H21.869C21.558,48.379,21.307,48.127,21.307,47.816z"/>
	<path fill="#B0C1D6" d="M21.307,51.939c0-0.311,0.251-0.563,0.562-0.563h35.229c0.311,0,0.563,0.252,0.563,0.563
		s-0.252,0.562-0.563,0.562H21.869C21.558,52.501,21.307,52.25,21.307,51.939z"/>
</g>
<path fill="#C2D8FC" fill-opacity="0.3" d="M62.072,43.87c-1.974,8.684-10.613,14.123-19.297,12.149S28.652,45.407,30.626,36.723
	S41.239,22.6,49.923,24.574S64.046,35.187,62.072,43.87z"/>
<path fill="#AA113D" d="M43.542,52.65c6.823,1.551,13.611-2.723,15.162-9.546c1.551-6.823-2.723-13.611-9.546-15.162
	s-13.611,2.723-15.162,9.546C32.445,44.312,36.719,51.1,43.542,52.65z M42.775,56.02c8.684,1.974,17.323-3.466,19.297-12.149
	s-3.466-17.323-12.149-19.296S32.6,28.04,30.626,36.723S34.092,54.046,42.775,56.02z"/>
<path fill="#D21844" d="M52.798,55.619c-0.603-1.07-0.259-2.424,0.78-3.078l0.085-0.054c1.041-0.655,2.414-0.377,3.117,0.633
	l14.912,20.628c0.751,1.078,0.449,2.565-0.663,3.266l-2.927,1.844c-1.114,0.701-2.589,0.328-3.235-0.82L52.798,55.619z"/>
</svg>
