<?xml version="1.0" encoding="utf-8"?>
<!-- Generator: Adobe Illustrator 16.0.0, SVG Export Plug-In . SVG Version: 6.00 Build 0)  -->
<!DOCTYPE svg PUBLIC "-//W3C//DTD SVG 1.1//EN" "http://www.w3.org/Graphics/SVG/1.1/DTD/svg11.dtd">
<svg version="1.1" id="Layer_1" xmlns="http://www.w3.org/2000/svg" xmlns:xlink="http://www.w3.org/1999/xlink" x="0px" y="0px"
	 width="91px" height="89px" viewBox="0 0 91 89" enable-background="new 0 0 91 89" xml:space="preserve">
<circle fill="#651E7F" cx="44.5" cy="44.5" r="44.5"/>
<path fill="#0544A5" d="M88.201,14.711l1.247,0.916c1.704,1.272,2.062,3.688,0.788,5.393l-38.12,51.539
	c-1.654,2.238-4.81,2.722-7.049,1.068l-14.124-10.43c-1.222-0.891-1.628-2.52-0.967-3.893l0.585-1.221L88.201,14.711z"/>
<path fill="#001C71" d="M31.224,62.459l13.36,9.87c1.883,1.399,4.53,0.992,5.929-0.89l38.452-51.997
	c1.348-1.806,0.534-4.401-1.578-5.164L71.405,8.683c-2.036-0.712-4.3-0.026-5.599,1.704L30.562,58.059
	C29.544,59.457,29.824,61.416,31.224,62.459z"/>
<path fill="#3660CD" d="M85.428,15.271L70.719,9.929c-1.781-0.636-3.716-0.025-4.836,1.501L31.58,57.83
	c-0.814,1.094-0.585,2.67,0.535,3.484l12.418,9.184c1.578,1.17,3.842,0.84,5.013-0.764L86.369,19.85
	C87.26,18.654,88.608,16.314,85.428,15.271z"/>
<linearGradient id="SVGID_1_" gradientUnits="userSpaceOnUse" x1="74.9619" y1="60.1738" x2="-1.5781" y2="21.5422" gradientTransform="matrix(1 0 0 -1 0 90)">
	<stop  offset="0" style="stop-color:#FFFFFF;stop-opacity:0"/>
	<stop  offset="1" style="stop-color:#FFFFFF"/>
</linearGradient>
<path fill="url(#SVGID_1_)" d="M61.43,17.433l4.453-6.029c1.12-1.526,3.08-2.111,4.836-1.501l14.709,5.368
	c3.181,1.068,1.832,3.383,0.941,4.579L53.643,64.113L61.43,17.433z"/>
<path fill="#001C71" d="M84.027,14.152l-1.018,1.374c-0.51,0.687-1.426,0.967-2.239,0.687l-8.78-3.18
	c-0.661-0.229-0.891-1.043-0.482-1.603l0.967-1.297L84.027,14.152z"/>
<path fill="#FC3C6A" d="M38,6c-6.161,0-11.744,2.891-15.399,7.273l-1.499-1.477c-0.305-0.328-0.773-0.445-1.195-0.281
	c-0.422,0.117-0.726,0.492-0.773,0.938l-1.124,7.734c-0.127,0.952,0.971,1.495,1.335,1.313c0.238-0.034,8.229-1.172,7.73-1.102
	c0.445-0.047,0.796-0.352,0.937-0.773s0.047-0.891-0.281-1.219l-1.78-1.781c2.788-3.563,7.2-5.859,12.049-5.859
	c8.363,0,15.282,6.82,15.305,15.188c0,0.023,0,0.023,0,0.047c0,0.298-0.01,0.596-0.028,0.892c-0.047,0.741,0.602,1.341,1.34,1.233
	l2.361-0.346c0.559-0.082,0.981-0.553,1.001-1.118c0.007-0.222,0.011-0.443,0.011-0.661C57.99,15.027,49.017,6,38,6z"/>
<path fill="#FC3C6A" d="M56.655,30.266c-0.238,0.034-8.229,1.172-7.73,1.102c-0.445,0.047-0.796,0.352-0.937,0.773
	s-0.047,0.891,0.28,1.219l1.874,1.875c-2.764,3.633-7.223,6-12.142,6c-8.387,0-15.305-6.844-15.305-15.234
	c0.008-0.152-0.019-0.48,0.032-1.104c0.062-0.752-0.592-1.362-1.331-1.258l-2.361,0.333c-0.558,0.079-0.981,0.543-1.007,1.106
	c-0.029,0.653-0.016,1.179-0.019,1.416C18.268,37.25,27.178,46,38,46c6.231,0,11.861-2.938,15.515-7.414l1.383,1.383
	c0.308,0.342,0.818,0.432,1.195,0.281c0.421-0.117,0.726-0.492,0.772-0.938l1.124-7.734C58.088,30.853,57.418,30.139,56.655,30.266z
	"/>
</svg>
