<?xml version="1.0" encoding="utf-8"?>
<!-- Generator: Adobe Illustrator 16.0.0, SVG Export Plug-In . SVG Version: 6.00 Build 0)  -->
<!DOCTYPE svg PUBLIC "-//W3C//DTD SVG 1.1//EN" "http://www.w3.org/Graphics/SVG/1.1/DTD/svg11.dtd">
<svg version="1.1" id="Layer_1" xmlns="http://www.w3.org/2000/svg" xmlns:xlink="http://www.w3.org/1999/xlink" x="0px" y="0px"
	 width="92px" height="97px" viewBox="0 0 92 97" enable-background="new 0 0 92 97" xml:space="preserve">
<ellipse fill="#651E7F" cx="46" cy="51.5" rx="46" ry="45.5"/>
<path fill="#B2B2B2" d="M47.2,47.291c-0.5-3.6-0.9-6.8-5.6-4l-2.3,1.3l-3.6,2.1l-2.4,1.3c-4.7,2.7-5.1,6.301-5.6,10.5
	c-0.4,3.801-1.4,14.801-1.4,14.9l1-0.6c0-0.101,1-10.9,1.4-14.701c0.5-4.5,0.9-6.799,4.7-8.899l2.3-1.3l3.6-2.1l2.3-1.3
	c3.8-2.2,4.2-0.4,4.7,3.5c0.4,3.301,1.4,12.9,1.4,13l1-0.5C48.6,60.49,47.6,50.59,47.2,47.291z"/>
<path fill="#B2B2B2" d="M47.6,61.091l1.4,0.8c0,0-0.2-6.7-0.5-9.3c-0.3-2.5-1.4-8.2-1.4-8.2l-0.6,0.4L47.6,61.091z"/>
<path fill="#B2B2B2" d="M27.7,74.19l-1.4-0.8c0,0,1.6-12.5,1.9-14.4c0.3-1.9,1.3-6.4,1.3-6.4l1.6,0.4c0,0-1.2,2.9-1.3,4.801
	C29.6,59.69,27.7,74.19,27.7,74.19z"/>
<path fill="#999999" d="M48.6,48.09c-0.5-3.6-0.899-6.8-5.6-4l-2.3,1.3l-3.6,2.1l-2.3,1.3c-4.7,2.7-5.1,6.299-5.6,10.5
	c-0.4,3.799-1.4,14.799-1.4,14.899l1-0.601c0-0.1,1-10.899,1.4-14.699c0.5-4.5,0.9-6.801,4.7-8.9l2.3-1.3l3.6-2.1l2.3-1.3
	c3.8-2.2,4.2-0.4,4.7,3.5c0.4,3.299,1.4,12.9,1.4,13l1-0.5C50,61.291,49,51.391,48.6,48.09z"/>
<path fill="#E42754" d="M46.9,41.99l-13.9,8c-5,2.9-6.8,2.6-8.4-1.3c-1.5-3.6-5.9-15.2-6.6-17.2l1.7-1c0.1,0.1,4.9,13,6.3,16.5
	c1.3,3.301,2.6,3.4,7,0.9l13.9-8V41.99z"/>
<path fill="#B2B2B2" d="M52.2,53.291l-2.4,1.399l-2.3,1.3c-4.7,2.7-5.1,6.301-5.6,10.5c-0.4,3.801-1.4,14.801-1.4,14.9l1-0.6
	c0-0.101,1-10.9,1.4-14.701c0.5-4.5,0.9-6.799,4.7-8.899l2.301-1.3l2.8-1.6C52.5,53.99,52.3,53.69,52.2,53.291z"/>
<path fill="#B2B2B2" d="M41.8,82.291l-1.4-0.801c0,0,1.6-12.5,1.9-14.4c0.3-1.899,1.3-6.399,1.3-6.399l1.6,0.399
	c0,0-1.2,2.9-1.3,4.801C43.7,67.791,41.8,82.291,41.8,82.291z"/>
<path fill="#999999" d="M52.3,54.891l-1.1,0.6l-2.3,1.301c-4.7,2.699-5.101,6.3-5.601,10.5c-0.4,3.8-1.4,14.8-1.4,14.899l1-0.6
	c0-0.101,1-10.9,1.4-14.7c0.5-4.5,0.9-6.8,4.7-8.9l2.3-1.3l1.4-0.8C52.5,55.591,52.4,55.291,52.3,54.891z"/>
<path fill="#FC3C6A" d="M64.9,50.19l-18-10.3l-9,5.2c0,0,4.9,14.7,6.9,15.3C50,61.791,64.9,50.19,64.9,50.19z"/>
<path fill="#000206" d="M69.7,57.791c-0.8-0.5-4.8,1.799-4.8,1.799l-5.5,1.801l-0.4,4c0,0,1.8,2.5,4.6,0.6
	c1.601-1.1,5.4-3,6.301-4.8C70.7,59.391,70.5,58.291,69.7,57.791z"/>
<path fill="#000206" d="M64,54.69c-0.8-0.5-4.8,1.8-4.8,1.8l-5.5,1.801l-0.4,4c0,0,1.8,2.5,4.601,0.6c1.6-1.1,5.4-3,6.3-4.801
	C65,56.291,64.7,55.19,64,54.69z"/>
<path fill="#045999" d="M60.4,42.69c-0.6-3.7-0.7-5.4-2.9-6.3c-1.3-0.5-6.1,0.7-9.3,1.4c-0.399,2.8,0,6,1.5,8.4
	c1.101-0.6,2.101-1.1,3.101-1.7C53.2,45.391,60.4,42.791,60.4,42.69z"/>
<path fill="#045999" d="M59.8,54.291c-1,0.699-2.1,1.299-3.1,2c-1.3,0.899-2.5,1.699-3.9,2.399c0.601,0.399,2.601,2,4.9,1
	c4.5-1.899,3.8-4.8,3.8-4.8S59.9,55.19,59.8,54.291z"/>
<path fill="#C1C1C1" d="M36,16.291c-1.8,1.6-4,9.6-4.2,11.8c-0.2,1.3-0.6,5.5,2.3,6.6c2.4,0.9,2.7-1.8,3.4-3.1
	c1-1.6,1.4-8.7,1.4-8.7l1.5-7.3C40.3,15.69,37.8,14.791,36,16.291z"/>
<path fill="#FFC5B3" d="M44.4,2.391c-1.6-1.1-4.6-0.7-5.9,2c-0.7,1.5,0.3,5.6,0.5,8.5c0.1,2.3-0.6,3.7-0.6,3.7s0,0,2,0.8
	c2,0.8,4.1,0,4.1,0l-0.1-3.5c0,0,2.1-0.3,2.5-0.7c0.899-0.8,1.399-3.3,1-6.5C47.2,1.99,44.9,2.791,44.4,2.391z"/>
<path fill="#2A78B7" d="M64.9,50.19c0.1,0.7-4.5,2.5-4.801,3.899C59.7,55.69,59,62.19,59,62.59c1,0.801,3.801,0.601,4.5,0.4
	c1.6-0.5,2.6-1.3,3.4-3c-0.5-4.1,0.4-12,0.1-13.6c-0.5-3.7-1.199-6.6-3.4-7.5c-1.6-0.6-5.1-0.1-9.299,1c-4.4,1.2-9,4.1-9,4.1
	l-9.7,0.5c0,0-0.5,3.9,2.3,6c2.8,2,8.7,5.1,13.5,2.6c2.3-1.199,7.199-4,9.4-5.299C61.4,48.19,64.1,49.791,64.9,50.19z"/>
<path fill="#000206" d="M54.5,31.291l12,6.9c0.3,0.2,0.5,0,0.5-0.4v-9.6c0-0.4-0.2-0.8-0.5-0.9l-12-6.9c-0.3-0.2-0.5,0-0.5,0.4v9.6
	C54,30.69,54.2,31.19,54.5,31.291z"/>
<path fill="#000206" d="M66.801,38.291l-0.701,0.3l0.101-0.7L66.801,38.291z"/>
<path fill="#000206" d="M53.5,20.791l0.7-0.4l0.2,1.3L53.5,20.791z"/>
<path fill="#333333" d="M53.8,31.69l12,6.9c0.3,0.2,0.5,0,0.5-0.4v-9.6c0-0.4-0.2-0.8-0.5-0.9l-12-6.9c-0.3-0.2-0.5,0-0.5,0.4v9.6
	C53.4,31.091,53.6,31.491,53.8,31.69z"/>
<path fill="#000206" d="M53.8,30.59l12.101,7v-9.3l-12.101-7V30.59z"/>
<path fill="#472E2C" d="M59.1,34.391l1.5,0.9c0.101,0,0.101,0,0.101-0.1s-0.101-0.2-0.101-0.3l-1.5-0.9c-0.1,0-0.1,0-0.1,0.1
	C58.9,34.19,59,34.291,59.1,34.391z"/>
<path fill="#104AAE" d="M54.4,30.99l10.899,6.2v-8.4L54.4,22.49V30.99z"/>
<path fill="#000206" d="M43.9,38.69l11.6,6.7c0.3,0.2,0.9,0.2,1.2-0.1l8.8-5.1c0.4-0.2,0.4-0.5,0.1-0.7l-11.6-6.7
	c-0.3-0.2-0.9-0.2-1.2,0.1l-8.8,5.1C43.6,38.19,43.6,38.49,43.9,38.69z"/>
<path fill="#000206" d="M65.061,39.786h0.799v-0.8h-0.799V39.786z"/>
<path fill="#898989" d="M43.709,38.461h0.8v-0.8h-0.8V38.461z"/>
<path fill="#333333" d="M43.9,37.99l11.6,6.7c0.3,0.2,0.9,0.2,1.2-0.1l8.8-5.1c0.4-0.2,0.4-0.5,0.1-0.7L54,32.09
	c-0.3-0.2-0.9-0.2-1.2,0.1l-8.8,5.1C43.6,37.49,43.6,37.791,43.9,37.99z"/>
<path fill="#000206" d="M47.6,35.891l11.4,6.6l5.8-3.3L53.4,32.49L47.6,35.891z"/>
<path fill="#000206" d="M48.2,39.791l4.1,2.4l2.101-1.3l-4-2.3L48.2,39.791z"/>
<path fill="#FFFFFF" d="M64.3,39.09l-0.8-0.4l-0.5,0.3l0.8,0.5L64.3,39.09z"/>
<path fill="#FFFFFF" d="M63.5,39.59l-0.8-0.4l-0.601,0.3l0.801,0.5L63.5,39.59z"/>
<path fill="#FFFFFF" d="M62.7,40.09l-1.101-0.6l-0.6,0.3l1.1,0.6L62.7,40.09z"/>
<path fill="#FFFFFF" d="M52.3,34.09l-0.5-0.3l-1.399,0.9l0.5,0.3L52.3,34.09z"/>
<path fill="#FFFFFF" d="M61.8,40.59l-1.1-0.6l-0.5,0.3l1,0.6L61.8,40.59z"/>
<path fill="#FFFFFF" d="M61,41.09l-1.4-0.8l-0.6,0.3l1.4,0.8L61,41.09z"/>
<path fill="#FFFFFF" d="M52.2,35.99l-2.101-1.2l-0.6,0.3l2.2,1.3L52.2,35.99z"/>
<path fill="#FFFFFF" d="M60.2,41.59l-0.8-0.5l-0.601,0.3l0.8,0.5L60.2,41.59z"/>
<path fill="#FFFFFF" d="M63.3,38.59l-0.8-0.5l-0.5,0.3l0.8,0.5L63.3,38.59z"/>
<path fill="#FFFFFF" d="M62.5,39.09l-0.8-0.5l-0.601,0.3l0.801,0.5L62.5,39.09z"/>
<path fill="#FFFFFF" d="M62.3,37.99l-0.8-0.5l-0.6,0.4l0.8,0.4L62.3,37.99z"/>
<path fill="#FFFFFF" d="M61.5,38.49l-0.8-0.5l-0.601,0.3l0.801,0.5L61.5,38.49z"/>
<path fill="#FFFFFF" d="M61.3,37.391l-0.8-0.5l-0.6,0.4l0.8,0.4L61.3,37.391z"/>
<path fill="#FFFFFF" d="M60.5,37.891l-0.8-0.5l-0.601,0.4l0.801,0.4L60.5,37.891z"/>
<path fill="#FFFFFF" d="M60.3,36.791l-0.8-0.4l-0.6,0.3l0.8,0.5L60.3,36.791z"/>
<path fill="#FFFFFF" d="M59.5,37.291l-0.8-0.5l-0.601,0.4l0.801,0.4L59.5,37.291z"/>
<path fill="#FFFFFF" d="M59.3,36.291l-0.8-0.5l-0.6,0.3l0.8,0.5L59.3,36.291z"/>
<path fill="#FFFFFF" d="M58.5,36.69l-0.8-0.4l-0.601,0.3l0.801,0.5L58.5,36.69z"/>
<path fill="#FFFFFF" d="M58.3,35.69l-0.8-0.5l-0.6,0.3l0.8,0.5L58.3,35.69z"/>
<path fill="#FFFFFF" d="M57.5,36.19l-0.8-0.5l-0.601,0.3l0.801,0.5L57.5,36.19z"/>
<path fill="#FFFFFF" d="M61.4,39.391l-0.801-0.5l-0.6,0.3l0.8,0.5L61.4,39.391z"/>
<path fill="#FFFFFF" d="M60.5,39.791l-0.8-0.4l-0.601,0.3l0.801,0.5L60.5,39.791z"/>
<path fill="#FFFFFF" d="M60.3,38.791l-0.8-0.5l-0.5,0.3l0.8,0.5L60.3,38.791z"/>
<path fill="#FFFFFF" d="M59.5,39.291l-0.8-0.5l-0.601,0.3l0.801,0.5L59.5,39.291z"/>
<path fill="#FFFFFF" d="M59.3,38.19l-0.8-0.5l-0.5,0.4l0.8,0.4L59.3,38.19z"/>
<path fill="#FFFFFF" d="M58.5,38.69l-0.8-0.5l-0.601,0.4l0.801,0.4L58.5,38.69z"/>
<path fill="#FFFFFF" d="M58.3,37.59l-0.8-0.4l-0.5,0.3l0.8,0.4L58.3,37.59z"/>
<path fill="#FFFFFF" d="M57.5,38.09l-0.8-0.5l-0.601,0.4l0.801,0.4L57.5,38.09z"/>
<path fill="#FFFFFF" d="M57.3,36.99l-0.8-0.4l-0.5,0.3l0.8,0.5L57.3,36.99z"/>
<path fill="#FFFFFF" d="M56.5,37.49l-0.8-0.4l-0.601,0.3l0.801,0.5L56.5,37.49z"/>
<path fill="#FFFFFF" d="M56.3,36.49l-0.8-0.5l-0.6,0.3l0.8,0.5L56.3,36.49z"/>
<path fill="#FFFFFF" d="M55.5,36.891l-0.8-0.4l-0.601,0.3l0.801,0.5L55.5,36.891z"/>
<path fill="#FFFFFF" d="M55.3,35.891l-0.8-0.5l-0.6,0.3l0.8,0.5L55.3,35.891z"/>
<path fill="#FFFFFF" d="M54.5,36.391l-0.8-0.5l-0.601,0.3l0.801,0.5L54.5,36.391z"/>
<path fill="#FFFFFF" d="M59.3,40.09l-0.8-0.5l-0.6,0.4l0.8,0.4L59.3,40.09z"/>
<path fill="#FFFFFF" d="M58.3,39.49l-0.8-0.4l-0.6,0.3l0.8,0.4L58.3,39.49z"/>
<path fill="#FFFFFF" d="M57.3,38.891l-0.8-0.4l-0.6,0.3l0.8,0.5L57.3,38.891z"/>
<path fill="#FFFFFF" d="M56.3,38.391l-0.8-0.5l-0.6,0.3l0.8,0.5L56.3,38.391z"/>
<path fill="#FFFFFF" d="M55.3,37.791l-0.8-0.5l-0.6,0.3l0.8,0.5L55.3,37.791z"/>
<path fill="#FFFFFF" d="M54.3,37.19l-0.8-0.5l-0.6,0.4l0.8,0.4L54.3,37.19z"/>
<path fill="#FFFFFF" d="M53.3,36.59l-0.8-0.4l-0.6,0.3l0.8,0.4L53.3,36.59z"/>
<path fill="#FFFFFF" d="M54.3,35.291l-0.8-0.5l-0.6,0.4l0.8,0.4L54.3,35.291z"/>
<path fill="#FFFFFF" d="M53.5,35.791l-0.8-0.5l-0.601,0.3l0.801,0.5L53.5,35.791z"/>
<path fill="#FFFFFF" d="M53.3,34.69l-0.8-0.4l-0.6,0.3l0.8,0.4L53.3,34.69z"/>
<path fill="#FFFFFF" d="M52.5,35.19l-0.8-0.5l-0.601,0.4l0.801,0.4L52.5,35.19z"/>
<path fill="#FFFFFF" d="M57.3,35.09l-0.8-0.5l-0.6,0.4l0.8,0.4L57.3,35.09z"/>
<path fill="#FFFFFF" d="M56.5,35.59l-0.8-0.5l-0.601,0.3l0.801,0.5L56.5,35.59z"/>
<path fill="#FFFFFF" d="M56.3,34.49l-0.8-0.5l-0.6,0.4l0.8,0.4L56.3,34.49z"/>
<path fill="#FFFFFF" d="M55.4,34.99l-0.801-0.5l-0.5,0.4l0.801,0.4L55.4,34.99z"/>
<path fill="#FFFFFF" d="M55.3,33.891l-0.8-0.4l-0.6,0.3l0.8,0.5L55.3,33.891z"/>
<path fill="#FFFFFF" d="M54.4,34.391l-0.801-0.5l-0.5,0.4l0.801,0.4L54.4,34.391z"/>
<path fill="#FFFFFF" d="M54.3,33.291l-0.8-0.4l-0.6,0.3l0.8,0.5L54.3,33.291z"/>
<path fill="#FFFFFF" d="M53.4,33.791l-0.801-0.4l-0.5,0.3l0.801,0.5L53.4,33.791z"/>
<path fill="#FFFFFF" d="M59.2,40.99l-0.8-0.5l-0.601,0.4l0.8,0.4L59.2,40.99z"/>
<path fill="#FFFFFF" d="M58.1,40.391l-0.8-0.5l-0.5,0.4l0.8,0.4L58.1,40.391z"/>
<path fill="#FFFFFF" d="M52.9,35.59l-0.801,0.5l-0.6-0.4l0.8-0.4L52.9,35.59z"/>
<path fill="#FFFFFF" d="M51.9,36.19l-0.801,0.5l-0.6-0.4l0.8-0.4L51.9,36.19z"/>
<path fill="#FFFFFF" d="M50.9,36.791l-0.801,0.5l-0.6-0.4l0.8-0.4L50.9,36.791z"/>
<path fill="#FFFFFF" d="M49.9,37.391l-0.601,0.3l-0.6-0.3l0.6-0.3L49.9,37.391z"/>
<path fill="#FFFFFF" d="M57.1,39.791l-4-2.3l-0.6,0.3l4.1,2.4L57.1,39.791z"/>
<path fill="#FFFFFF" d="M63.9,40.99l1.199-0.7v-0.3l-1.199,0.6V40.99z"/>
<path fill="#FFFFFF" d="M62.6,41.69l1.101-0.6v-0.4l-1.101,0.7V41.69z"/>
<path fill="#DDDDDD" d="M49.5,28.09c-0.4-4-0.5-6.5-1.2-8.1c-0.7-1.6-3.9-2.6-3.9-2.6l-7.5-0.8c0,0-1.4,2.9-1.8,8
	c-0.2,2.3-0.1,6.6,0.1,12.5c0.1,4-2.2,6.4-0.5,8.2c2.6,2.6,8.4,4.5,11.6,3.6c2-0.5,4.4-2.8,5.7-4.4C51.1,39.19,50,33.791,49.5,28.09
	z"/>
<path fill="#C1C1C1" d="M44.2,16.291c0,0-2.9,0.9-4.6-0.5c-2.4-1.9-2.7,0.8-2.7,0.8s1,1.4,3.1,2.1c2,0.6,3.9,0.5,5.9-0.5
	C45.8,16.891,44.2,16.291,44.2,16.291z"/>
<path fill="#000206" d="M45,8.391c0.1,0.2,1.3-0.1,1.3-0.4c0.2-0.8,0.799-2.6,0.9-3.4c0.2-0.9,0.2-2.1-1-3.4
	c-1.1-1.2-5.2-1.6-6.7-0.7c-1.5,0.9-4.6,3.1-3.5,8.2c0.9,4.1,3.2,6.4,3.2,6.4s3.5-0.9,4.1-4.9c0.1-0.7-1.1-2.2-0.2-2.9
	C43.9,6.491,44.8,7.791,45,8.391z"/>
<path fill="#B2B2B2" d="M61,53.391c-0.2,0.2-0.4,0.4-0.7,0.5c-0.1,0.1-0.2,0.1-0.3,0.1c0.1,0.601,0.2,1.301,0.3,2
	c0.4,3.301,1.4,12.9,1.4,13l1-0.5c0-0.1-1-10-1.4-13.3C61.2,54.69,61.1,53.99,61,53.391z"/>
<path fill="#B2B2B2" d="M61.4,53.09c-0.2,0.201-0.4,0.301-0.601,0.5l1,15.5l1.4,0.801c0,0-0.2-6.7-0.5-9.301
	C62.5,58.69,61.7,54.59,61.4,53.09z"/>
<path fill="#999999" d="M62.7,56.19c-0.2-1.399-0.3-2.601-0.7-3.601c-0.3,0.301-0.6,0.5-1,0.801c0.4,0.8,0.6,2,0.8,3.5
	c0.4,3.3,1.4,12.9,1.4,13l1-0.5C64.1,69.391,63.1,59.49,62.7,56.19z"/>
<path fill="#E42754" d="M26.6,51.49l18.2,10.5c0,0-3.9-10.1-5.2-13.3c-1.3-3.2-3.1-7.9-3.1-7.9l-17.6-9.4L26.6,51.49z"/>
<path fill="#D21844" d="M64.9,52.291l-13.9,8c-5,2.899-6.8,2.6-8.4-1.301c-1.5-3.6-5.9-15.2-6.6-17.2l1.7-1c0,0.1,4.8,12.9,6.3,16.5
	c1.3,3.299,2.6,3.399,7,0.899l13.9-8V52.291z"/>
<path fill="#FC3C6A" d="M19.7,30.49l-1.7,1l18,10.3l1.7-1L19.7,30.49z"/>
<path fill="#FFC5B3" d="M57.6,33.791c0,0,2.7,0.3,3.7,0.9c1.101,0.6,0.9,3,0.601,3.8c-0.101,0.3-0.601,1.9-1.2,1.5
	c-0.601-0.3,0-1.4,0-1.4s-0.9,1-1.101,0.8c-0.6-0.4,0.2-1.2,0.2-1.2l-2.2-1.6V33.791z"/>
<path fill="#C1C1C1" d="M59.1,33.99c-1.199-0.7-2.6-1.4-4-1.6c-0.699-2.4-3.399-11.7-7.3-13c-1.2-0.4-2.6,2.7-2.2,5.7
	c0.3,2.6,1.6,7.3,2.9,10.1c0.5,1.1,1.5,3,3.4,3.6c1.699,0.6,3.3,1.2,6.1,0.2C60.8,38.09,61.4,35.391,59.1,33.99z"/>
</svg>
