<?xml version="1.0" encoding="utf-8"?>
<!-- Generator: Adobe Illustrator 16.0.0, SVG Export Plug-In . SVG Version: 6.00 Build 0)  -->
<!DOCTYPE svg PUBLIC "-//W3C//DTD SVG 1.1//EN" "http://www.w3.org/Graphics/SVG/1.1/DTD/svg11.dtd">
<svg version="1.1" id="Layer_1" xmlns="http://www.w3.org/2000/svg" xmlns:xlink="http://www.w3.org/1999/xlink" x="0px" y="0px"
	 width="91px" height="103px" viewBox="0 0 91 103" enable-background="new 0 0 91 103" xml:space="preserve">
<circle fill="#651E7F" cx="45.5" cy="57.5" r="45.5"/>
<path fill="#49185E" d="M67.619,66.5l0.127,0.221l-0.018,0.01c0.967,2.49-3.831,7.686-10.992,11.82
	c-7.162,4.135-14.061,5.692-15.735,3.61l-0.017,0.01l-0.127-0.22l-1.27-2.199l1.856-1.072c1.595-2.617,5.391-5.947,10.296-8.779
	c4.906-2.833,9.688-4.456,12.752-4.527l1.856-1.072L67.619,66.5z"/>
<path fill="#FC3C6A" d="M60.717,60.231c-21.631-7.737-27.625-1.612-27.918,2.418c3.297,2.858,11.035,8.09,15.607,6.155
	C54.121,66.387,60.057,63.529,60.717,60.231z"/>
<path fill="#651E7F" d="M66.35,64.301c1.379,2.389-3.494,7.785-10.884,12.051c-7.39,4.268-14.499,5.789-15.878,3.4
	c-1.379-2.39,3.493-7.785,10.883-12.052C57.861,63.434,64.97,61.912,66.35,64.301z"/>
<path fill="#B4C5EF" fill-opacity="0.2" d="M54.822,49.84c-0.15-0.317-0.314-0.63-0.492-0.938
	c-3.519-6.094-11.311-8.182-17.405-4.664s-8.182,11.311-4.664,17.405c0.178,0.309,0.367,0.606,0.566,0.896l-0.037,0.021
	l9.101,15.764c6.516,1.125,19.064-5.924,22.069-12.742l-9.102-15.764L54.822,49.84z"/>
<path fill="#D21844" d="M32.791,62.561l9.101,15.764c6.516,1.125,19.064-5.924,22.069-12.742l-3.09-5.351
	C45.638,73.421,34.118,62.561,32.791,62.561z"/>
<path fill="#DDE5F9" fill-opacity="0.2" d="M18.996,38.582c0.15,0.317,0.313,0.629,0.492,0.938
	c3.519,6.095,11.311,8.183,17.405,4.664s8.182-11.311,4.664-17.405c-0.178-0.309-0.367-0.607-0.566-0.895l0.038-0.021l-9.101-15.764
	C28.45,16.055,15.828,22.933,9.857,22.84l9.101,15.764L18.996,38.582z"/>
<path fill="#FC3C6A" d="M19.17,38.689c-4.396-5.1,14.142-7.401,23.96-7.694c0,0.879-1.975,5.862-3.074,7.914
	C35.001,41.034,23.566,43.789,19.17,38.689z"/>
<path fill="#D21844" d="M18.996,38.582c0.15,0.316,0.313,0.629,0.492,0.938c3.519,6.094,11.311,8.183,17.405,4.664
	c4.682-2.703,6.999-7.929,6.227-12.969C38.011,41.942,24.909,40.596,18.996,38.582z"/>
<path fill="#49185E" d="M32.992,6.525l0.127,0.22l-0.017,0.01c0.966,2.491-3.832,7.687-10.994,11.821
	c-7.162,4.135-14.06,5.692-15.734,3.61l-0.017,0.01l-0.127-0.22l-1.27-2.2l1.856-1.072c1.595-2.618,5.391-5.948,10.297-8.78
	c4.906-2.833,9.688-4.456,12.751-4.527l1.856-1.072L32.992,6.525z"/>
<path fill="#651E7F" d="M31.722,4.326c1.379,2.389-3.493,7.784-10.883,12.051c-7.39,4.267-14.499,5.789-15.878,3.399
	c-1.379-2.389,3.493-7.784,10.883-12.051C23.234,3.459,30.343,1.937,31.722,4.326z"/>
<linearGradient id="SVGID_1_" gradientUnits="userSpaceOnUse" x1="38.4429" y1="59.0391" x2="38.4429" y2="49.1528" gradientTransform="matrix(1 0 0 -1 0 104)">
	<stop  offset="0" style="stop-color:#FC3C6A"/>
	<stop  offset="1" style="stop-color:#D41A46"/>
</linearGradient>
<path fill="url(#SVGID_1_)" d="M38.263,44.962c-1.035,2.416-2.76,6.212-1.38,7.938C38.263,54.625,43.438,58.768,38.263,44.962z"/>
</svg>
